<svg width="192" height="192" viewBox="0 0 192 192" version="1.1" xmlns="http://www.w3.org/2000/svg" xmlns:xlink="http://www.w3.org/1999/xlink">
<g fill="none">
<g clip-path="url(#clip0)">
<rect width="192" height="192" rx="27" fill="url(#paint0_linear)"/>
<path d="M 46.41 133.82C 39.9967 112.067 34.1033 93.4767 28.73 78.05L 27.3 78.05C 27.1267 83.25 26.7367 91.44 26.13 102.62L 25.35 118.22C 25.35 121.08 26.78 122.51 29.64 122.51C 31.3733 122.51 32.6733 122.423 33.54 122.25L 34.45 123.16L 33.02 132.52L 28.21 132.39C 23.9633 132.13 20.02 132 16.38 132C 14.56 132 12.0467 132.13 8.84 132.39C 5.72 132.65 3.64 132.867 2.6 133.04L 3.51 123.29C 5.85 122.943 7.54 122.163 8.58 120.95C 9.70667 119.65 10.5733 117.397 11.18 114.19C 11.8733 108.21 12.87 98.6333 14.17 85.46C 15.47 72.2867 16.12 65.0933 16.12 63.88C 16.12 62.2333 15.9033 61.02 15.47 60.24C 15.0367 59.46 14.17 58.8967 12.87 58.55C 11.6567 58.1167 9.70667 57.77 7.02 57.51L 6.11 56.6L 7.41 47.63L 13.65 47.89C 18.33 48.15 22.0567 48.28 24.83 48.28C 28.5567 48.28 32.4567 48.15 36.53 47.89L 41.21 47.76C 43.8967 58.0733 47.06 69.4267 50.7 81.82L 54.86 96.77L 56.16 96.77C 57.2867 92.9567 57.98 90.7467 58.24 90.14C 59.1933 86.9333 61.0133 80.9967 63.7 72.33C 66.3867 63.5767 68.8133 55.5167 70.98 48.15C 73.6667 48.15 75.7467 48.1933 77.22 48.28L 84.63 48.41C 87.0567 48.41 88.8333 48.3667 89.96 48.28C 92.04 48.1933 96.2867 47.9333 102.7 47.5L 103.48 48.02L 102.57 57.25C 98.93 57.51 96.46 58.1167 95.16 59.07C 93.9467 60.0233 93.34 61.7133 93.34 64.14C 93.34 67.3467 93.6433 74.15 94.25 84.55C 94.9433 94.8633 95.6367 103.573 96.33 110.68C 96.7633 115.273 97.4133 118.393 98.28 120.04C 99.1467 121.6 100.577 122.38 102.57 122.38C 104.217 122.38 105.473 122.293 106.34 122.12L 106.99 123.03L 105.82 132.39C 100.88 132.13 96.33 132 92.17 132C 89.6567 132 85.9733 132.13 81.12 132.39C 76.2667 132.65 72.8867 132.867 70.98 133.04L 72.28 123.16C 74.7067 122.9 76.44 122.293 77.48 121.34C 78.6067 120.3 79.17 118.783 79.17 116.79L 78.65 104.57C 78.0433 95.3833 77.61 86.5433 77.35 78.05L 76.05 78.05C 69.9833 95.1233 64.0467 113.323 58.24 132.65L 46.41 133.82ZM 112.185 123.68C 114.698 123.333 116.562 122.553 117.775 121.34C 118.988 120.04 119.595 118.177 119.595 115.75L 119.595 90.27C 119.595 87.41 119.162 85.46 118.295 84.42C 117.515 83.38 115.998 82.86 113.745 82.86C 113.138 82.86 112.532 82.9467 111.925 83.12C 111.318 83.2067 110.928 83.2933 110.755 83.38L 111.665 74.41C 117.298 73.7167 122.932 72.8933 128.565 71.94C 134.198 70.9 137.838 70.2067 139.485 69.86L 140.915 72.33C 139.962 74.2367 139.182 79.2633 138.575 87.41C 138.055 95.47 137.795 105.61 137.795 117.83C 137.795 119.65 138.055 120.95 138.575 121.73C 139.095 122.423 140.048 122.77 141.435 122.77C 142.128 122.77 142.822 122.727 143.515 122.64C 144.208 122.553 144.685 122.51 144.945 122.51L 145.205 123.03L 143.905 132.52C 142.778 132.433 140.655 132.303 137.535 132.13C 134.502 132.043 131.338 132 128.045 132C 125.185 132 121.892 132.173 118.165 132.52C 114.438 132.953 112.012 133.257 110.885 133.43L 112.185 123.68ZM 127.525 61.02C 124.145 61.02 121.545 60.11 119.725 58.29C 117.905 56.3833 116.995 53.7833 116.995 50.49C 116.995 46.9367 118.035 44.0767 120.115 41.91C 122.282 39.7433 125.098 38.66 128.565 38.66C 131.858 38.66 134.415 39.6133 136.235 41.52C 138.055 43.4267 138.965 46.0267 138.965 49.32C 138.965 52.8733 137.925 55.7333 135.845 57.9C 133.765 59.98 130.992 61.02 127.525 61.02Z" transform="translate(22 7)" fill="white"/>
</g>
</g>
<defs>
<linearGradient id="paint0_linear" x2="1" gradientUnits="userSpaceOnUse" gradientTransform="matrix(321 357 -357 321 132 -205)">
<stop stop-color="#3AA150"/>
<stop offset="1" stop-color="#276D4A"/>
</linearGradient>
<clipPath id="clip0">
<rect width="192" height="192" fill="white"/>
</clipPath>
</defs>
</svg>
