<svg width="192" height="192" xmlns="http://www.w3.org/2000/svg" xmlns:xlink="http://www.w3.org/1999/xlink"><g transform="translate(-3291)"><clipPath id="a" clip-rule="evenodd"><path d="M3291 0h192v192h-192V0z" fill="#FFF"/></clipPath><g clip-path="url(#a)"><path d="M3291 0h192v192h-192V0z" fill="#FFF"/><use xlink:href="#path0_fill" transform="translate(3291)" fill="#1E6D0F"/><use xlink:href="#path1_fill" transform="translate(3313 7)" fill="#FFF"/></g></g><defs><path id="path0_fill" d="M0 27C0 12.088 12.088 0 27 0h138c14.912 0 27 12.088 27 27v138c0 14.912-12.088 27-27 27H27c-14.912 0-27-12.088-27-27V27z"/><path id="path1_fill" d="M46.41 133.82c-6.413-21.753-12.307-40.343-17.68-55.77H27.3c-.173 5.2-.563 13.39-1.17 24.57l-.78 15.6c0 2.86 1.43 4.29 4.29 4.29 1.733 0 3.033-.087 3.9-.26l.91.91-1.43 9.36-4.81-.13c-4.247-.26-8.19-.39-11.83-.39-1.82 0-4.333.13-7.54.39-3.12.26-5.2.477-6.24.65l.91-9.75c2.34-.347 4.03-1.127 5.07-2.34 1.127-1.3 1.993-3.553 2.6-6.76.693-5.98 1.69-15.557 2.99-28.73 1.3-13.173 1.95-20.367 1.95-21.58 0-1.647-.217-2.86-.65-3.64-.433-.78-1.3-1.343-2.6-1.69-1.213-.433-3.163-.78-5.85-1.04l-.91-.91 1.3-8.97 6.24.26c4.68.26 8.407.39 11.18.39 3.727 0 7.627-.13 11.7-.39l4.68-.13c2.687 10.313 5.85 21.667 9.49 34.06l4.16 14.95h1.3c1.127-3.813 1.82-6.023 2.08-6.63.953-3.207 2.773-9.143 5.46-17.81a2160.91 2160.91 0 0 0 7.28-24.18c2.687 0 4.767.043 6.24.13l7.41.13c2.427 0 4.203-.043 5.33-.13 2.08-.087 6.327-.347 12.74-.78l.78.52-.91 9.23c-3.64.26-6.11.867-7.41 1.82-1.213.953-1.82 2.643-1.82 5.07 0 3.207.303 10.01.91 20.41.693 10.313 1.387 19.023 2.08 26.13.433 4.593 1.083 7.713 1.95 9.36.867 1.56 2.297 2.34 4.29 2.34 1.647 0 2.903-.087 3.77-.26l.65.91-1.17 9.36c-4.94-.26-9.49-.39-13.65-.39-2.513 0-6.197.13-11.05.39-4.853.26-8.233.477-10.14.65l1.3-9.88c2.427-.26 4.16-.867 5.2-1.82 1.127-1.04 1.69-2.557 1.69-4.55l-.52-12.22a752.155 752.155 0 0 1-1.3-26.52h-1.3c-6.067 17.073-12.003 35.273-17.81 54.6l-11.83 1.17zm65.775-10.14c2.513-.347 4.377-1.127 5.59-2.34 1.213-1.3 1.82-3.163 1.82-5.59V90.27c0-2.86-.433-4.81-1.3-5.85-.78-1.04-2.297-1.56-4.55-1.56a6.61 6.61 0 0 0-1.82.26c-.607.087-.997.173-1.17.26l.91-8.97a378.009 378.009 0 0 0 16.9-2.47c5.633-1.04 9.273-1.733 10.92-2.08l1.43 2.47c-.953 1.907-1.733 6.933-2.34 15.08-.52 8.06-.78 18.2-.78 30.42 0 1.82.26 3.12.78 3.9.52.693 1.473 1.04 2.86 1.04.693 0 1.387-.043 2.08-.13.693-.087 1.17-.13 1.43-.13l.26.52-1.3 9.49c-1.127-.087-3.25-.217-6.37-.39-3.033-.087-6.197-.13-9.49-.13-2.86 0-6.153.173-9.88.52-3.727.433-6.153.737-7.28.91l1.3-9.75zm15.34-62.66c-3.38 0-5.98-.91-7.8-2.73-1.82-1.907-2.73-4.507-2.73-7.8 0-3.553 1.04-6.413 3.12-8.58 2.167-2.167 4.983-3.25 8.45-3.25 3.293 0 5.85.953 7.67 2.86 1.82 1.907 2.73 4.507 2.73 7.8 0 3.553-1.04 6.413-3.12 8.58-2.08 2.08-4.853 3.12-8.32 3.12z"/></defs></svg>