<svg height="1024" viewBox="0 0 768 768" width="1024" xmlns="http://www.w3.org/2000/svg"><path d="m89.7 1.6c-41.9 7.6-75 38.2-86.5 79.9l-2.7 10v584l2.2 8.7c6.5 25.5 20.4 46.9 40.2 61.9 9.2 6.9 26.7 15.4 38.6 18.7l10 2.7h585l10-2.8c12-3.3 29.5-11.7 38.6-18.6 18.8-14.3 33.1-35.8 39.7-59.6l2.7-10v-584l-2.2-8.7c-6.5-25.5-20.4-46.9-40.2-61.9-9.2-6.9-26.7-15.4-38.6-18.7l-10-2.7-289.5-.2c-246.6-.1-290.7.1-297.3 1.3zm531.8 184.7c9.8 4.6 16.4 12 20.1 22.7 2.8 8.1 2.5 26.2-.5 34.5-6.3 17.4-20 27.2-39.6 28.2-27.5 1.6-43.5-11.9-45.2-37.9-1.4-20.5 6.7-37 21.9-45.3 8.1-4.4 13.2-5.4 25.8-5.2 10.2.2 12.2.6 17.5 3zm-120.6 33c.8 1 .6 6-.7 19-1 9.7-2 17.8-2.3 18.1-.2.2-4.2 1-8.8 1.6-8.5 1.2-16.3 3.6-20.6 6.4-1.2.8-3.3 3.7-4.6 6.3-2.3 4.6-2.4 5.7-2.2 22.3.7 43.3 9.4 166.8 13.8 194.5 2.6 16.3 6.5 24.3 13.7 28.1 1.8 1 6.2 1.4 13.6 1.4 8.1 0 11.3.4 12.1 1.4.9 1 .6 5.8-1.2 20-1.3 10.2-2.5 18.7-2.8 18.9-.2.1-6.9 0-14.9-.4-32.1-1.5-64.9-.8-107.8 2.2-8.5.6-15.6.8-15.8.6-.5-.5 4.3-37.5 5.1-38.7.2-.4 2.6-1 5.2-1.4 11.7-1.6 19.3-8 21.2-17.9.9-4.8-.4-39.8-3.3-88.7-.8-14-1.8-33.8-2.1-44-.8-26.9-1.1-29-3.9-29-2.2 0-3.1 2.1-11.4 25.7-16.8 48.1-44.7 134.5-59.7 184.4l-2.5 8.6-23.5 2.3c-13 1.2-23.7 2.1-23.9 1.9-.1-.2-4.9-15.9-10.6-34.9-17.2-57.9-41.2-133.3-54.2-170.8-5.8-16.5-6.1-17.2-8.7-17.2h-2.7l-1.8 37.7c-1 20.8-2.8 57.4-4 81.3-1.5 28.5-1.9 45-1.3 47.7 1 5.1 6 9.9 11.3 10.9 2 .4 7.6.4 12.5.2 12.8-.8 12.4-1.6 9 21-1.6 10-3.1 18.6-3.5 18.9-.3.4-12.4.1-26.9-.5-14.4-.7-31.2-1.2-37.4-1.2-10.4 0-43.6 2.3-52.9 3.6l-4 .6 1.8-19.2c.9-10.6 1.8-19.3 2-19.4s3-1 6.3-2c9.5-2.9 13.5-6.2 18-14.7 5.3-10.2 6.5-18.9 17-123.4 9.2-92.2 10-105.1 6.7-111.5-2.9-5.9-9.4-8.4-30.6-11.7-2.8-.5-5.3-1.5-5.9-2.5-.8-1.2-.4-6.5 1.3-19.4l2.4-17.7 17.1.7c46.2 1.7 63.2 1.9 89.7.6 15.3-.7 28.1-1.1 28.3-.8.3.3 3.7 12.4 7.5 26.9 3.9 14.5 14.5 52.3 23.5 83.9s18.1 63.7 20.1 71.2c3.6 13.3 3.9 13.8 6.4 13.8 2.4 0 2.9-.6 4.7-6.8 1.1-3.7 10.9-35.3 21.6-70.2 10.8-34.9 23.1-75.4 27.5-90l7.9-26.5 40.9-.2c23.8-.1 48.9-.8 59.9-1.6 25.4-1.9 27.1-1.9 28.4-.4zm148.2 93.5c2.5 4.4 2.5 4.9 1.2 8-.7 1.9-2.2 8.6-3.3 15-4.6 27.5-7 71.5-7.3 133.2-.2 37.1-.1 40.8 1.6 43.7 2.9 5.4 6.7 6.7 17.4 6 5.1-.4 9.4-.3 9.7.2.3.4-.7 9.5-2.1 20.1l-2.6 19.2-6.6-.6c-3.6-.3-19.2-.9-34.6-1.2-29.6-.7-51.4.3-76.7 3.5-12.5 1.6-13.8 1.6-13.8.2-.1-4 4.4-35.7 5.2-36.7.5-.6 2.7-1.4 4.9-1.8 6.1-1 14.7-5.5 18-9.6 6-7.1 6-7.6 5.7-76.1-.3-62.3-.3-62.4-2.5-66.6-1.3-2.3-3.7-5.2-5.5-6.5-3-2.1-4.3-2.3-15.1-2.3h-11.9l.6-3.5c.3-1.9 1-9.4 1.7-16.5.6-7.2 1.7-13.5 2.3-14.1s7.2-1.9 14.6-2.8c20.3-2.6 54.4-8.1 74-12 23.3-4.5 22-4.6 25.1 1.2z"/></svg>